<svg xmlns="http://www.w3.org/2000/svg" width="12" height="12" viewBox="0 0 12 12">
    <rect id="frame" width="12" height="12" fill="none"/>
    <path fill="#6E6E6E" fill-rule="evenodd"
        d="M1.714 4.277c0 .276.155.53.4.655l.268.135c.208.105.43.094.618.008V1.782a.7.7 0 0 0-.618.009l-.267.134a.734.734 0 0 0-.4.655v1.697zm2.572 6.866c-1.62 0-3.448-1.867-3.429-3.429V6c0-1.218.485-1.714.857-1.714V2.57C.771 2.571 0 4.353 0 6v1.714C0 10.057 2.229 12 4.286 12H8.57v-.857H4.286zM8 0v6.857H5.26c-1.011 0-1.831-.922-1.831-2.06V2.06C3.429.922 4.249 0 5.26 0H8zm1 6h3v-.9H9V6zm0-4.1h3V1H9v.9z"/>
</svg>
